# xmcd
#
# Track frame offsets:
#	183
#	10615
#	21995
#	35983
#	48300
#	62080
#	72488
#	85758
#	97833
#	108795
#	120803
#	133573
#	148493
#	161803
#	177225
#	189973
#	201195
#	212585
#	224768
#	236600
#
# Disc length: 3317
#
# Revision: 1
# Processed by: cddbd v1.5.1PL0 Copyright (c) Steve Scherf et al.
# Submitted via: jack 1.3.4
# Normalized: r0:DSETVAR1,TDELIM( - )
#
DISCID=1f0cf314
DTITLE=Various Artist - Rhythm and Blues CD 2
DYEAR=1900
DGENRE=
TTITLE0=Aretha Franklin - Think
TTITLE1=Sam and Dave - Wrap It Up
TTITLE2=Wilson Pickett - Mustang Sally
TTITLE3=Otis Redding - Fa-fa-fa-fa-fa (Sad Song)
TTITLE4=William Bell - Never Like This Before
TTITLE5=Clarence Carter - Looking For A Fox
TTITLE6=Carla Thomas - B.A.B.Y.
TTITLE7=Jimmy Hughes - Neighbor, Neighbor
TTITLE8=Sir Mack Rice - Love Sickness
TTITLE9=Johnny Taylor - Toc Hold
TTITLE10=Ben E. King - Don't Play (That Song)
TTITLE11=Sam and Dave - When Something Is Wrong With My Babe
TTITLE12=Otis Redding - I've Been Loving You Too Long (To Stop Now)
TTITLE13=The Persuaders - Thin Line Between Love and Hate
TTITLE14=Albert King - Born Under A Bad Sign
TTITLE15=Mable John - I'm A Big Girl Now
TTITLE16=Doris Troy - Just One Look
TTITLE17=Otis Redding - Shake
TTITLE18=Ray Charles - Hallelujah, I Love Her So
TTITLE19=William Bell - You Don't Miss Your Water ('Till Your Well Runs Dry)
EXTD=
EXTT0=
EXTT1=
EXTT2=
EXTT3=
EXTT4=
EXTT5=
EXTT6=
EXTT7=
EXTT8=
EXTT9=
EXTT10=
EXTT11=
EXTT12=
EXTT13=
EXTT14=
EXTT15=
EXTT16=
EXTT17=
EXTT18=
EXTT19=
PLAYORDER=
